<?xml version="1.0" standalone="no"?>
<!DOCTYPE svg PUBLIC "-//W3C//DTD SVG 20010904//EN"
 "http://www.w3.org/TR/2001/REC-SVG-20010904/DTD/svg10.dtd">
<svg version="1.0" xmlns="http://www.w3.org/2000/svg"
 width="340.000000pt" height="340.000000pt" viewBox="0 0 340.000000 340.000000"
 preserveAspectRatio="xMidYMid meet">
<metadata>
Created by potrace 1.14, written by Peter Selinger 2001-2017
</metadata>
<g transform="translate(0.000000,340.000000) scale(0.100000,-0.100000)"
fill="#000000" stroke="none">
<path d="M0 1700 l0 -1700 1700 0 1700 0 0 1700 0 1700 -1700 0 -1700 0 0
-1700z m3300 0 l0 -1600 -1600 0 -1600 0 0 1600 0 1600 1600 0 1600 0 0 -1600z"/>
<path d="M500 1865 l0 -715 225 0 225 0 0 265 0 265 173 0 c111 0 196 5 240
15 230 48 357 206 357 442 0 242 -117 391 -344 434 -27 5 -235 9 -462 9 l-414
0 0 -715z m702 402 c73 -31 105 -126 68 -201 -31 -66 -84 -88 -217 -94 l-103
-5 0 163 0 163 108 -5 c66 -3 121 -11 144 -21z"/>
<path d="M1814 2181 c3 -5 103 -239 221 -521 l215 -513 -28 -50 c-39 -74 -76
-92 -182 -91 -47 0 -103 6 -124 12 -22 6 -41 10 -43 8 -4 -3 26 -268 30 -272
8 -8 186 -24 267 -24 212 0 326 62 404 221 28 58 356 929 446 1187 l19 52
-197 0 -197 0 -94 -328 c-51 -180 -97 -330 -100 -335 -4 -4 -54 143 -111 328
l-104 335 -214 0 c-122 0 -211 -4 -208 -9z"/>
</g>
</svg>
